<?xml version="1.0" standalone="no"?>
<!DOCTYPE svg PUBLIC "-//W3C//DTD SVG 20010904//EN"
 "http://www.w3.org/TR/2001/REC-SVG-20010904/DTD/svg10.dtd">
<svg version="1.0" xmlns="http://www.w3.org/2000/svg"
 width="512.000000pt" height="512.000000pt" viewBox="0 0 512.000000 512.000000"
 preserveAspectRatio="xMidYMid meet">
<metadata>
Created by potrace 1.14, written by Peter Selinger 2001-2017
</metadata>
<g transform="translate(0.000000,512.000000) scale(0.100000,-0.100000)"
fill="#000000" stroke="none">
<path d="M2417 4904 c-1 -1 -33 -5 -72 -8 -38 -3 -81 -8 -95 -10 -14 -3 -43
-7 -65 -10 -22 -2 -47 -7 -55 -10 -8 -3 -31 -7 -50 -10 -151 -23 -438 -126
-628 -228 -462 -247 -828 -643 -1042 -1128 -77 -176 -139 -385 -166 -567 -3
-21 -7 -49 -10 -63 -17 -97 -23 -358 -11 -517 6 -92 38 -289 56 -351 5 -18 10
-36 11 -40 2 -18 23 -93 45 -157 86 -261 225 -516 396 -730 142 -178 379 -387
582 -513 82 -52 262 -143 337 -172 30 -11 64 -25 75 -30 87 -40 382 -111 520
-126 17 -2 59 -6 95 -10 79 -10 362 -10 445 0 124 13 312 43 325 51 4 2 17 6
31 9 52 10 206 58 293 92 400 154 782 450 1030 797 225 316 374 693 421 1068
20 162 26 321 15 370 -14 57 -59 113 -113 141 l-42 21 -1116 0 -1116 0 -44
-22 c-79 -41 -119 -105 -119 -189 0 -64 17 -108 58 -150 67 -69 10 -65 1088
-66 l973 0 -5 -35 c-50 -365 -185 -687 -399 -956 -301 -376 -706 -611 -1195
-692 -132 -21 -465 -24 -590 -4 -435 68 -800 249 -1084 538 -309 313 -484 679
-543 1134 -15 115 -7 486 12 542 2 6 6 28 9 47 10 68 57 232 92 323 175 450
506 817 926 1028 154 77 338 143 459 164 19 3 52 10 74 15 80 17 173 24 325
25 241 0 358 -16 595 -86 231 -67 523 -238 715 -418 84 -78 120 -96 196 -96
144 0 240 133 198 275 -34 114 -368 373 -669 519 -264 129 -499 195 -805 227
-59 6 -358 13 -363 8z"/>
</g>
</svg>
